<svg xmlns="http://www.w3.org/2000/svg" viewBox="0 10.67 35.37 35.95" role="img" aria-labelledby="asta-logo-title">
  <title id="asta-logo"> Asta </title>
  <path
    fill="#0FCB8C"
    d="M14.15,24.7h-7.07v-6.84h5.7c.76,0,1.38-.63,1.38-1.4v-5.79h6.73v7.19c0,3.78-3.01,6.84-6.73,6.84ZM7.07,25.4H0v6.84h5.7c.76,0,1.38.63,1.38,1.4v5.79h6.73v-7.19c0-3.78-3.01-6.84-6.73-6.84ZM29.68,25.05c-.76,0-1.38-.63-1.38-1.4v-5.79h-6.73v7.19c0,3.78,3.01,6.84,6.73,6.84h7.07v-6.84h-5.7ZM14.49,39.43v7.19h6.73v-5.79c0-.77.62-1.4,1.38-1.4h5.7v-6.84h-7.07c-3.72,0-6.73,3.06-6.73,6.84Z"
  />
</svg>
