<svg width="50" height="16" viewBox="0 0 50 16" fill="none" xmlns="http://www.w3.org/2000/svg">
<path d="M6.21462 6.53266H3.10731V3.5787H5.60876C5.94274 3.5787 6.21462 3.30699 6.21462 2.97322V0.473373H9.17046V3.5787C9.17046 5.21045 7.84741 6.53266 6.21462 6.53266ZM3.10731 6.83539H0V9.78935H2.50145C2.83543 9.78935 3.10731 10.0611 3.10731 10.3948V12.8947H6.06315V9.78935C6.06315 8.1576 4.74011 6.83539 3.10731 6.83539ZM13.0351 6.68402C12.7011 6.68402 12.4292 6.41232 12.4292 6.07855V3.5787H9.47339V6.68402C9.47339 8.31578 10.7964 9.63798 12.4292 9.63798H15.5365V6.68402H13.0351ZM6.36608 12.8947V16H9.32193V13.5001C9.32193 13.1664 9.59381 12.8947 9.92779 12.8947H12.4292V9.94072H9.32193C7.68913 9.94072 6.36608 11.2629 6.36608 12.8947Z" fill="#F0529C"/>
<path d="M35.3067 2.53023H32.381V0.421452H35.3067V2.53023ZM33.0306 4.28666H31.2655V6.501H32.7988C33.0547 6.501 33.2632 6.71058 33.2632 6.96877V15.9992H35.5852V6.80399C35.5852 5.17209 34.5405 4.2859 33.0314 4.2859L33.0306 4.28666ZM25.9478 0.421452L31.6833 16H29.2453L27.7219 11.8652H20.5518L19.0283 16H16.6137L22.3492 0.421452H25.9485H25.9478ZM27.0061 9.92045L24.1368 2.13156L21.2676 9.92045H27.0061ZM41.0603 14.056L45.7737 10.3077C48.5134 8.12909 49.7208 6.60655 49.7208 4.52131C49.7208 2.31609 48.3509 0 44.2178 0C39.2185 0 37.5769 3.38529 37.5769 6.501H40.0848C40.0848 3.68904 41.3177 1.99108 44.2178 1.99108C46.354 1.99108 47.2135 3.24328 47.2135 4.54485C47.2135 5.7158 46.865 6.51239 45.5185 7.61348L37.6235 14.056V16H50V14.056H41.0603Z" fill="#F0529C"/>
</svg>
