<?xml version="1.0" encoding="UTF-8"?>
<svg id="Layer_1" xmlns="http://www.w3.org/2000/svg" version="1.1" viewBox="0 0 498 120">
  <!-- Generator: Adobe Illustrator 29.8.4, SVG Export Plug-In . SVG Version: 2.1.1 Build 6)  -->
  <defs>
    <style>
      .st0 {
        fill: #42ba88;
      }
    </style>
  </defs>
  <path class="st0" d="M91.8,42.3v-18.9h-21.8v23.5c0,12.3,9.8,22.3,21.8,22.3h22.9v-22.3h-18.5c-2.5,0-4.5-2.1-4.5-4.6h0ZM67.8,23.5V0h-21.8v18.9c0,2.5-2,4.6-4.5,4.6h-18.5v22.3h22.9c12.1,0,21.8-10,21.8-22.3h0ZM47,93.8v23.5h21.8v-18.9c0-2.5,2-4.6,4.5-4.6h18.5v-22.3h-22.9c-12.1,0-21.8,10-21.8,22.3h0ZM22.9,48.1H0v22.3h18.5c2.5,0,4.5,2.1,4.5,4.6v18.9h21.8v-23.5c0-12.3-9.8-22.3-21.8-22.3h0ZM380.4,9.6h-8.7l-7.1,17.9-18.1,6.3v9.1h16.6v48.4c0,6.2.7,11.2,2.3,14.9,1.5,3.6,4.1,6.4,7.9,8.3,3.8,1.8,9.2,2.6,16.2,2.6h17.3v-14h-26.2v-60.2h27.9v-13.5h-27.9V9.6ZM497.1,97.2v-43.5c0-8.3-3.1-14.9-9.2-19.8-6-4.9-15-7.4-26.7-7.4s-21.7,2.7-28.4,8.1c-6.8,5.4-10.2,12.8-10.3,22.3h17.5c.5-5.6,2.4-9.8,5.9-12.6,3.6-2.8,9-4.2,16.1-4.2s12,1.2,14.8,3.5c2.9,2.2,4.3,5.5,4.3,9.8s-1,5.3-3,6.9c-1.8,1.5-4.9,2.6-9.2,3.3l-21.8,3.7c-9.4,1.6-16.2,4.7-20.4,9.1-4.1,4.3-6.1,10.1-6.1,17.4s2.6,14.4,7.7,19c5.2,4.6,12.3,6.9,21.3,6.9s15.5-2.1,20.8-6.3c5.2-4.2,8.8-9.5,10.8-15.8,0,6.3.4,12.9,1,19.8h15.9c-.6-6.9-.9-13.6-.9-20h0ZM481.1,74.6c0,9.1-2.4,16.7-7.3,22.6-4.9,5.8-11.7,8.8-20.6,8.8s-8.4-1.1-11.2-3.3c-2.7-2.3-4-5.5-4-9.7s1.2-7.1,3.7-9.3c2.4-2.3,6.4-4.1,11.9-5.4l12-2.8c3.4-.8,6.3-1.6,8.7-2.4,2.4-.9,4.7-2.2,6.8-3.7v5.3h0ZM311.4,65.8l-18.9-2.8c-4.4-.7-7.6-2-9.4-3.8-1.8-1.9-2.6-4.3-2.6-7.2s1.5-6.7,4.5-8.9c3.1-2.3,7.9-3.5,14.3-3.5s11.3,1.4,14.8,4.2c3.5,2.8,5.5,6.4,5.9,10.7h17.5c-.6-8.4-4.3-15.1-11-20.2-6.8-5.2-15.6-7.7-26.7-7.7s-20.3,2.4-26.7,7.2c-6.4,4.8-9.6,11.4-9.6,19.8s2,12,5.9,16.2c4.1,4.1,9.9,6.7,17.5,7.9l21.6,3.3c4.5.7,7.9,2.1,9.9,4.2,2.2,2,3.3,4.8,3.3,8.4s-1.4,7.8-4.2,10.2c-2.8,2.2-7.9,3.3-15.2,3.3s-14.1-1.8-18.1-5.3c-4.1-3.5-6.3-8.1-6.6-13.9h-16.2c0,9.6,3.3,17.4,9.9,23.3,6.6,5.8,16.8,8.8,30.5,8.8s21.9-2.3,27.9-6.9c6-4.6,9.1-11.4,9.1-20.5s-2-13.3-6.1-17.7c-4.1-4.6-11.2-7.6-21.5-9.1ZM183.7.5l-43.1,116.7h18.1l10.3-27.7h56.2l10.3,27.7h18.3L210.7.5h-27.1ZM174.4,74.9l22.7-61.6,22.7,61.6h-45.4Z"/>
</svg>