<svg width="120" height="17" viewBox="0 0 120 17" fill="none" xmlns="http://www.w3.org/2000/svg">
<g clip-path="url(#clip0_3686_6269)">
<path d="M3.13002 7.06678H0V10.0879H2.51913C2.85543 10.0879 3.12876 10.3657 3.12876 10.7064V13.2623H6.10637V10.0866C6.10637 8.41828 4.77375 7.06552 3.12876 7.06552L3.13002 7.06678ZM9.23639 3.73643V0.561973H6.25878V3.11788C6.25878 3.45859 5.98545 3.73643 5.64915 3.73643H3.13002V6.75751H6.26004C7.90503 6.75751 9.23765 5.406 9.23765 3.73643H9.23639ZM6.41244 13.2623V16.438H9.39006V13.8821C9.39006 13.5414 9.66338 13.2636 9.99968 13.2636H12.5188V10.2425H9.3888C7.7438 10.2425 6.41118 11.594 6.41118 13.2636L6.41244 13.2623ZM12.5188 6.2936V3.73769H9.5412V6.9134C9.5412 8.58172 10.8738 9.93448 12.5188 9.93448H15.6488V6.9134H13.1297C12.7934 6.9134 12.5188 6.63556 12.5188 6.29485V6.2936ZM119.167 10.8975C118.612 10.2802 117.637 9.8691 116.241 9.66292L113.673 9.28324C113.07 9.18769 112.643 9.0142 112.388 8.7615C112.15 8.5088 112.032 8.18318 112.032 7.78842C112.032 7.28176 112.239 6.8782 112.65 6.57773C113.079 6.26091 113.729 6.1025 114.601 6.1025C115.474 6.1025 116.147 6.29234 116.623 6.67202C117.099 7.05169 117.369 7.53446 117.432 8.12032H119.811C119.732 6.98129 119.233 6.07107 118.312 5.38966C117.393 4.69317 116.18 4.34492 114.673 4.34492C113.167 4.34492 111.906 4.66928 111.034 5.318C110.163 5.96672 109.726 6.86186 109.726 8.00089C109.726 8.90356 109.995 9.63149 110.534 10.1847C111.09 10.7391 111.882 11.0949 112.914 11.2533L115.864 11.7046C116.482 11.8002 116.934 11.99 117.219 12.2741C117.52 12.5432 117.671 12.9229 117.671 13.4132C117.671 14.0141 117.481 14.4743 117.1 14.7898C116.72 15.0903 116.03 15.2412 115.031 15.2412C113.936 15.2412 113.113 15.0036 112.557 14.5283C112.002 14.0531 111.701 13.4283 111.653 12.6526H109.441C109.441 13.95 109.893 15.0036 110.798 15.8107C111.702 16.6015 113.089 16.9975 114.96 16.9975C116.673 16.9975 117.942 16.6882 118.767 16.0709C119.592 15.4536 120.004 14.5271 120.004 13.2925C120.004 12.2955 119.727 11.4959 119.171 10.895L119.167 10.8975ZM102.231 4.36881C100.138 4.36881 98.6705 5.17594 97.8304 6.79019V0H95.4523V16.6203H97.8304V14.5786C98.6705 16.1929 100.138 17 102.231 17C104.055 17 105.434 16.4141 106.37 15.2437C107.306 14.0569 107.773 12.5369 107.773 10.685C107.773 8.83316 107.306 7.32199 106.37 6.15027C105.434 4.96347 104.055 4.37006 102.231 4.37006V4.36881ZM104.515 14.0317C103.959 14.7446 103.032 15.1004 101.733 15.1004C99.1315 15.1004 97.8317 13.6282 97.8317 10.6838C97.8317 7.73939 99.1315 6.26719 101.733 6.26719C103.032 6.26719 103.961 6.63179 104.515 7.35971C105.085 8.07255 105.371 9.18015 105.371 10.6838C105.371 12.1874 105.085 13.3038 104.515 14.0317ZM92.4735 8.02477C92.4735 6.90083 92.0528 6.00695 91.2126 5.34189C90.3876 4.67682 89.1747 4.34492 87.5738 4.34492C85.9729 4.34492 84.6163 4.70951 83.6968 5.43744C82.7773 6.16536 82.3088 7.17113 82.2937 8.45223H84.673C84.736 7.69287 85.0055 7.1221 85.4816 6.74242C85.9728 6.36274 86.7021 6.1729 87.6695 6.1729C88.6368 6.1729 89.3107 6.33131 89.6911 6.64813C90.0879 6.9486 90.2856 7.3924 90.2856 7.97826C90.2856 8.38937 90.1508 8.69864 89.8813 8.90482C89.6281 9.111 89.2074 9.26061 88.6205 9.35616L85.6466 9.85527C84.3619 10.0765 83.4348 10.4889 82.863 11.0899C82.3075 11.6757 82.0304 12.459 82.0304 13.4408C82.0304 14.5334 82.3793 15.3883 83.0771 16.0055C83.79 16.6228 84.7574 16.9309 85.9791 16.9309C87.2009 16.9309 88.0965 16.6455 88.8094 16.076C89.5223 15.5064 90.0148 14.7936 90.2843 13.9387C90.2843 14.7936 90.3322 15.6875 90.4267 16.6216H92.5906C92.5113 15.6875 92.4722 14.7861 92.4722 13.9148V8.02729L92.4735 8.02477ZM90.2856 10.8497C90.2856 12.0843 89.9531 13.1052 89.2868 13.9123C88.6205 14.7031 87.6846 15.0991 86.4805 15.0991C85.8456 15.0991 85.338 14.9482 84.9576 14.6478C84.5924 14.3309 84.411 13.8959 84.411 13.3415C84.411 12.7871 84.5773 12.3835 84.911 12.0831C85.2436 11.7662 85.7827 11.5211 86.5283 11.3476L88.1695 10.9679C88.6293 10.8573 89.026 10.7466 89.3586 10.636C89.6911 10.509 90.0009 10.3431 90.2869 10.1369V10.8497H90.2856ZM72.8343 0.831016H70.3845V16.6203H80.8502V14.6503H72.8343V0.831016ZM67.5253 8.02477C67.5253 6.90083 67.1046 6.00695 66.2644 5.34189C65.4394 4.67682 64.2265 4.34492 62.6256 4.34492C61.0247 4.34492 59.6681 4.70951 58.7486 5.43744C57.8291 6.16536 57.3606 7.17113 57.3455 8.45223H59.7248C59.7878 7.69287 60.0573 7.1221 60.5334 6.74242C61.0247 6.36274 61.7539 6.1729 62.7213 6.1729C63.6886 6.1729 64.3625 6.33131 64.7429 6.64813C65.1396 6.9486 65.3374 7.3924 65.3374 7.97826C65.3374 8.38937 65.2026 8.69864 64.9331 8.90482C64.6786 9.111 64.2592 9.26061 63.6723 9.35616L60.6984 9.85527C59.4137 10.0765 58.4866 10.4889 57.916 11.0899C57.3606 11.6757 57.0835 12.459 57.0835 13.4408C57.0835 14.5334 57.4324 15.3883 58.1302 16.0055C58.8443 16.6228 59.8117 16.9309 61.0322 16.9309C62.2527 16.9309 63.1495 16.6455 63.8624 16.076C64.5766 15.5064 65.0679 14.7936 65.3374 13.9387C65.3374 14.7936 65.3853 15.6875 65.4797 16.6216H67.6449C67.5656 15.6875 67.5253 14.7861 67.5253 13.9148V8.02729V8.02477ZM65.3374 10.8497C65.3374 12.0843 65.0049 13.1052 64.3386 13.9123C63.6723 14.7031 62.7364 15.0991 61.531 15.0991C60.8962 15.0991 60.3886 14.9482 60.0082 14.6478C59.6429 14.3309 59.4615 13.8959 59.4615 13.3415C59.4615 12.7871 59.6278 12.3835 59.9616 12.0831C60.2941 11.7662 60.8332 11.5211 61.5789 11.3476L63.2201 10.9679C63.6798 10.8573 64.0766 10.7466 64.4091 10.636C64.7416 10.509 65.0515 10.3431 65.3374 10.1369V10.8497ZM51.6207 2.0656H50.4317L49.4568 4.48698L46.983 5.34189V6.57647H49.2427V13.129C49.2427 13.9676 49.346 14.6402 49.5525 15.1469C49.7591 15.6372 50.1156 16.0093 50.6232 16.2633C51.1471 16.5009 51.884 16.6191 52.835 16.6191H55.1903V14.7194H51.622V6.57647H55.4284V4.74848H51.622V2.0656H51.6207ZM42.2093 9.66292L39.6398 9.28324C39.0377 9.18769 38.6094 9.0142 38.355 8.7615C38.117 8.5088 37.9986 8.18318 37.9986 7.78842C37.9986 7.28176 38.2051 6.8782 38.617 6.57773C39.0452 6.26091 39.6952 6.1025 40.5681 6.1025C41.4409 6.1025 42.1148 6.29234 42.5897 6.67202C43.0645 7.05169 43.3353 7.53446 43.3983 8.12032H45.7764C45.697 6.98129 45.1982 6.07107 44.2775 5.38966C43.358 4.69317 42.145 4.34492 40.6386 4.34492C39.1322 4.34492 37.8713 4.66928 36.9985 5.318C36.1268 5.96672 35.6898 6.86186 35.6898 8.00089C35.6898 8.90356 35.9593 9.63149 36.4984 10.1847C37.0539 10.7391 37.8461 11.0949 38.8777 11.2533L41.8276 11.7046C42.4461 11.8002 42.8983 11.99 43.1829 12.2741C43.484 12.5432 43.6351 12.9229 43.6351 13.4132C43.6351 14.0141 43.4449 14.4743 43.0645 14.7898C42.6841 15.0903 41.9939 15.2412 40.9951 15.2412C39.9005 15.2412 39.0767 15.0036 38.5213 14.5283C37.9658 14.0531 37.6648 13.4283 37.6169 12.6526H35.4051C35.4051 13.95 35.8573 15.0036 36.7604 15.8107C37.6648 16.6015 39.0515 16.9975 40.9233 16.9975C42.6363 16.9975 43.9046 16.6882 44.7297 16.0709C45.5547 15.4536 45.9666 14.5271 45.9666 13.2925C45.9666 12.2955 45.6894 11.4959 45.134 10.895C44.5785 10.2777 43.6036 9.86659 42.208 9.66041L42.2093 9.66292ZM24.7996 0.831016L18.9237 16.6203H21.3975L22.8006 12.8688H30.4601L31.8632 16.6203H34.3609L28.4863 0.831016H24.7996ZM23.5387 10.8975L26.631 2.56345L29.7232 10.8975H23.5387Z" fill="#0FCB8C"/>
</g>
<defs>
<clipPath id="clip0_3686_6269">
<rect width="120" height="17" fill="white"/>
</clipPath>
</defs>
</svg>
